<?xml version="1.0" encoding="utf-8"?>
<svg viewBox="0 0 806 300" xmlns="http://www.w3.org/2000/svg">
  <g transform="matrix(0.1, 0, 0, -0.1, 0, 300)" fill="#000000" stroke="none">
    <path d="M1803 2475 c-355 -64 -644 -312 -760 -650 -174 -510 101 -1067 612 -1242 510 -174 1067 101 1242 612 174 510 -101 1067 -612 1242 -150 51 -332 65 -482 38z m322 -90 c105 -19 210 -58 308 -116 93 -55 239 -201 296 -296 173 -291 173 -633 0 -926 -55 -95 -201 -241 -296 -296 -293 -173 -632 -173 -926 0 -93 55 -239 201 -296 296 -173 292 -173 634 0 926 57 95 203 241 296 296 194 114 403 153 618 116z" style="fill: rgb(255, 255, 255);"/>
    <path d="M1814 2045 c-4 -8 -3 -26 0 -40 l6 -25 257 0 257 0 -54 -55 -54 -55 -308 0 -308 0 0 -170 0 -170 40 0 40 0 0 130 0 130 279 0 279 0 138 135 139 134 -353 1 c-305 0 -353 -2 -358 -15z" style="fill: rgb(255, 255, 255);"/>
    <path d="M1820 1615 l0 -85 128 0 127 0 -57 -55 -56 -55 -176 0 -176 0 0 -305 c0 -168 3 -305 6 -305 3 0 68 59 145 132 l139 132 0 88 0 88 -40 0 -39 0 -3 -81 -3 -82 -62 -55 -63 -55 0 182 0 181 148 0 147 0 135 133 135 132 -177 3 -178 2 0 45 0 45 -40 0 -40 0 0 -85z" style="fill: rgb(255, 255, 255);"/>
    <path d="M3360 1755 l0 -315 75 0 75 0 0 115 0 115 145 0 145 0 0 60 0 60 -145 0 -145 0 0 85 0 85 165 0 165 0 0 55 0 55 -240 0 -240 0 0 -315z" style="fill: rgb(255, 255, 255);"/>
    <path d="M4167 1755 l105 -316 76 3 77 3 71 210 c40 118 74 203 78 195 3 -8 34 -103 69 -210 l63 -195 78 0 79 0 29 85 c16 47 62 188 102 313 l74 228 -71 -3 -71 -3 -71 -220 -71 -220 -72 223 -73 222 -68 0 -69 0 -72 -216 c-43 -127 -76 -211 -80 -203 -4 8 -36 105 -71 216 l-64 203 -77 0 -76 0 105 -315z" style="fill: rgb(255, 255, 255);"/>
    <path d="M5300 2010 l0 -60 166 -2 166 -3 -166 -200 -165 -200 -1 -52 0 -53 270 0 270 0 0 60 0 60 -175 2 -175 3 170 205 c166 201 170 206 170 253 l0 47 -265 0 -265 0 0 -60z" style="fill: rgb(255, 255, 255);"/>
    <path d="M6040 2066 c0 -3 54 -95 120 -204 l120 -200 0 -111 0 -111 70 0 70 0 0 111 0 111 120 200 c66 109 120 201 120 204 0 2 -31 4 -69 4 l-69 0 -77 -130 c-43 -72 -81 -133 -86 -135 -4 -3 -44 56 -89 130 l-81 135 -75 0 c-41 0 -74 -2 -74 -4z" style="fill: rgb(255, 255, 255);"/>
    <path d="M2900 955 c0 -108 1 -115 20 -115 17 0 20 7 20 45 l0 45 70 0 c68 0 70 1 70 25 0 24 -2 25 -70 25 -63 0 -70 2 -70 20 0 19 7 20 90 20 89 0 90 0 90 25 l0 25 -110 0 -110 0 0 -115z" style="fill: rgb(255, 255, 255);"/>
    <path d="M3240 955 l0 -115 110 0 110 0 0 25 c0 25 -1 25 -90 25 -83 0 -90 1 -90 20 0 18 7 20 70 20 68 0 70 1 70 25 0 24 -2 25 -70 25 -63 0 -70 2 -70 20 0 19 7 20 90 20 89 0 90 0 90 25 l0 25 -110 0 -110 0 0 -115z" style="fill: rgb(255, 255, 255);"/>
    <path d="M3580 955 l0 -115 115 0 115 0 0 45 c0 41 -2 45 -25 45 -20 0 -25 5 -25 25 0 20 5 25 25 25 23 0 25 4 25 45 l0 45 -115 0 -115 0 0 -115z m180 45 c0 -18 -7 -20 -65 -20 -58 0 -65 2 -65 20 0 18 7 20 65 20 58 0 65 -2 65 -20z m0 -90 c0 -18 -7 -20 -65 -20 -58 0 -65 2 -65 20 0 18 7 20 65 20 58 0 65 -2 65 -20z" style="fill: rgb(255, 255, 255);"/>
    <path d="M3930 955 c0 -108 1 -115 20 -115 17 0 20 7 20 45 l0 45 64 0 c59 0 65 2 68 23 2 14 11 23 26 25 19 3 22 9 22 48 l0 44 -110 0 -110 0 0 -115z m170 45 c0 -18 -7 -20 -65 -20 -58 0 -65 2 -65 20 0 18 7 20 65 20 58 0 65 -2 65 -20z" style="fill: rgb(255, 255, 255);"/>
    <path d="M4270 1000 l0 -70 90 0 c83 0 90 -1 90 -20 0 -19 -7 -20 -90 -20 -89 0 -90 0 -90 -25 l0 -25 110 0 110 0 0 115 c0 108 -1 115 -20 115 -17 0 -20 -7 -20 -45 l0 -45 -70 0 -70 0 0 45 c0 38 -3 45 -20 45 -18 0 -20 -7 -20 -70z" style="fill: rgb(255, 255, 255);"/>
    <path d="M4820 955 l0 -115 155 0 155 0 0 115 c0 108 -1 115 -20 115 -19 0 -20 -7 -20 -90 l0 -90 -50 0 -50 0 0 90 c0 83 -1 90 -20 90 -19 0 -20 -7 -20 -90 l0 -90 -45 0 -45 0 0 90 c0 83 -1 90 -20 90 -19 0 -20 -7 -20 -115z" style="fill: rgb(255, 255, 255);"/>
    <path d="M5250 955 c0 -108 1 -115 20 -115 19 0 20 7 20 115 0 108 -1 115 -20 115 -19 0 -20 -7 -20 -115z" style="fill: rgb(255, 255, 255);"/>
    <path d="M5410 955 l0 -115 110 0 110 0 0 25 c0 25 -1 25 -90 25 -83 0 -90 1 -90 20 0 18 7 20 70 20 68 0 70 1 70 25 0 24 -2 25 -70 25 -63 0 -70 2 -70 20 0 19 7 20 90 20 89 0 90 0 90 25 l0 25 -110 0 -110 0 0 -115z" style="fill: rgb(255, 255, 255);"/>
    <path d="M5750 1045 c0 -25 1 -25 90 -25 83 0 90 -1 90 -20 0 -18 -7 -20 -65 -20 -63 0 -65 -1 -65 -25 0 -24 2 -25 65 -25 63 0 65 1 65 25 0 18 5 25 20 25 17 0 20 7 20 45 l0 45 -110 0 -110 0 0 -25z" style="fill: rgb(255, 255, 255);"/>
    <path d="M6090 955 l0 -115 25 0 c23 0 25 4 25 45 l0 45 65 0 65 0 0 -45 c0 -41 2 -45 25 -45 l25 0 0 115 0 115 -115 0 -115 0 0 -115z m180 45 c0 -18 -7 -20 -65 -20 -58 0 -65 2 -65 20 0 18 7 20 65 20 58 0 65 -2 65 -20z" style="fill: rgb(255, 255, 255);"/>
    <path d="M6440 1000 l0 -70 90 0 c83 0 90 -1 90 -20 0 -19 -7 -20 -90 -20 -89 0 -90 0 -90 -25 l0 -25 110 0 110 0 0 115 c0 108 -1 115 -20 115 -17 0 -20 -7 -20 -45 l0 -45 -70 0 -70 0 0 45 c0 38 -3 45 -20 45 -18 0 -20 -7 -20 -70z" style="fill: rgb(255, 255, 255);"/>
    <path d="M6780 955 c0 -108 1 -115 20 -115 17 0 20 7 20 45 l0 45 70 0 70 0 0 -45 c0 -38 3 -45 20 -45 19 0 20 7 20 115 l0 115 -110 0 -110 0 0 -115z m180 45 c0 -18 -7 -20 -70 -20 -63 0 -70 2 -70 20 0 18 7 20 70 20 63 0 70 -2 70 -20z" style="fill: rgb(255, 255, 255);"/>
    <path d="M4110 885 c0 -38 3 -45 20 -45 17 0 20 7 20 45 0 38 -3 45 -20 45 -17 0 -20 -7 -20 -45z" style="fill: rgb(255, 255, 255);"/>
    <path d="M5750 885 l0 -45 110 0 110 0 0 25 c0 25 -1 25 -90 25 -83 0 -90 1 -90 20 0 13 -7 20 -20 20 -17 0 -20 -7 -20 -45z" style="fill: rgb(255, 255, 255);"/>
  </g>
</svg>